<svg width="29" height="28" viewBox="0 0 29 28" fill="none" xmlns="http://www.w3.org/2000/svg">
<path d="M14.5001 26.8333C15.8292 26.8333 16.9047 25.795 16.9047 24.5117H12.0955C12.0955 25.795 13.1709 26.8333 14.5001 26.8333ZM24.5172 21.3383L22.9584 19.8333V12.8333C22.9584 8.925 20.1067 5.65833 16.3126 4.865V3.5C16.3126 2.53167 15.503 1.75 14.5001 1.75C13.4972 1.75 12.6876 2.53167 12.6876 3.5V4.865C8.89342 5.65833 6.04175 8.925 6.04175 12.8333V19.8333L4.483 21.3383C3.72175 22.0733 4.25342 23.3333 5.32883 23.3333H23.6592C24.7467 23.3333 25.2784 22.0733 24.5172 21.3383ZM15.7084 18.6667H13.2917V16.3333H15.7084V18.6667ZM15.7084 12.8333C15.7084 13.475 15.1647 14 14.5001 14C13.8355 14 13.2917 13.475 13.2917 12.8333V10.5C13.2917 9.85833 13.8355 9.33333 14.5001 9.33333C15.1647 9.33333 15.7084 9.85833 15.7084 10.5V12.8333Z" fill="#F24E1E"/>
</svg>
