<svg width="63" height="61" viewBox="0 0 63 61" fill="none" xmlns="http://www.w3.org/2000/svg">
<path d="M31.5 7.625C18.473 7.625 7.875 17.8866 7.875 30.5C7.875 43.1134 18.473 53.375 31.5 53.375C44.527 53.375 55.125 43.1134 55.125 30.5C55.125 17.8866 44.527 7.625 31.5 7.625ZM42.7354 41.3787C42.3662 41.736 41.8657 41.9366 41.3438 41.9366C40.8218 41.9366 40.3213 41.736 39.9521 41.3787L34.6808 36.2759C32.4538 37.7597 29.7346 38.3841 27.0566 38.0266C24.3787 37.6691 21.9354 36.3555 20.2063 34.3435C18.4771 32.3316 17.5869 29.7666 17.7103 27.1519C17.8337 24.5372 18.9619 22.0615 20.8734 20.2107C22.7849 18.3599 25.3417 17.2676 28.0421 17.1481C30.7426 17.0286 33.3917 17.8905 35.4696 19.5648C37.5475 21.2391 38.9041 23.6048 39.2734 26.1977C39.6426 28.7906 38.9977 31.4235 37.4653 33.5798L42.7354 38.6838C43.1043 39.0412 43.3116 39.5259 43.3116 40.0312C43.3116 40.5366 43.1043 41.0213 42.7354 41.3787Z" fill="#E0E0E0"/>
<path d="M28.5469 34.3125C32.3525 34.3125 35.4375 31.3254 35.4375 27.6406C35.4375 23.9559 32.3525 20.9688 28.5469 20.9688C24.7413 20.9688 21.6562 23.9559 21.6562 27.6406C21.6562 31.3254 24.7413 34.3125 28.5469 34.3125Z" fill="#E0E0E0"/>
</svg>
