<svg width="30" height="30" viewBox="0 0 30 30" fill="none" xmlns="http://www.w3.org/2000/svg">
<path d="M17.5 18.75L21.465 14.785C22.1283 14.1223 23.0274 13.7501 23.965 13.75H25C25.663 13.75 26.2989 14.0134 26.7678 14.4822C27.2366 14.9511 27.5 15.587 27.5 16.25C27.5 16.913 27.2366 17.5489 26.7678 18.0178C26.2989 18.4866 25.663 18.75 25 18.75H5C4.33696 18.75 3.70107 18.4866 3.23223 18.0178C2.76339 17.5489 2.5 16.913 2.5 16.25C2.5 15.587 2.76339 14.9511 3.23223 14.4822C3.70107 14.0134 4.33696 13.75 5 13.75H9.57125C11.4463 13.75 13.245 14.495 14.5712 15.8212L17.5 18.75Z" stroke="#FFD233" stroke-width="2" stroke-linecap="round" stroke-linejoin="round"/>
<path d="M3.75 18.75H26.25V21.25C26.25 22.2446 25.8549 23.1984 25.1517 23.9017C24.4484 24.6049 23.4946 25 22.5 25H7.5C6.50544 25 5.55161 24.6049 4.84835 23.9017C4.14509 23.1984 3.75 22.2446 3.75 21.25V18.75Z" fill="#FFD233" stroke="#FFD233" stroke-width="2" stroke-linecap="round" stroke-linejoin="round"/>
<path fill-rule="evenodd" clip-rule="evenodd" d="M6.83378 5.6925C9.08753 4.32125 11.975 3.75 15 3.75C18.025 3.75 20.9125 4.32125 23.1663 5.6925C25.4713 7.09375 27.0525 9.3 27.4188 12.3525C27.6025 13.8825 26.3338 15 25 15H5.00003C3.66628 15 2.39753 13.8825 2.58128 12.3525C2.94753 9.3 4.52878 7.09375 6.83378 5.6925ZM8.75003 7.5C8.41851 7.5 8.10057 7.6317 7.86615 7.86612C7.63173 8.10054 7.50003 8.41848 7.50003 8.75C7.50003 9.08152 7.63173 9.39946 7.86615 9.63388C8.10057 9.8683 8.41851 10 8.75003 10C9.08155 10 9.40074 9.8683 9.63516 9.63388C9.86958 9.39946 10.0013 9.08152 10.0013 8.75C10.0013 8.41848 9.86958 8.10054 9.63516 7.86612C9.40074 7.6317 9.08155 7.5 8.75003 7.5ZM18.75 8.75C18.75 8.41848 18.8817 8.10054 19.1161 7.86612C19.3506 7.6317 19.6685 7.5 20 7.5C20.3316 7.5 20.6507 7.6317 20.8852 7.86612C21.1196 8.10054 21.2513 8.41848 21.2513 8.75C21.2513 9.08152 21.1196 9.39946 20.8852 9.63388C20.6507 9.8683 20.3328 10 20.0013 10C19.6698 10 19.3506 9.8683 19.1161 9.63388C18.8817 9.39946 18.75 9.08152 18.75 8.75ZM13.75 10C13.4185 10 13.1006 10.1317 12.8661 10.3661C12.6317 10.6005 12.5 10.9185 12.5 11.25C12.5 11.5815 12.6317 11.8995 12.8661 12.1339C13.1006 12.3683 13.4185 12.5 13.75 12.5H13.7513C14.0828 12.5 14.4007 12.3683 14.6352 12.1339C14.8696 11.8995 15.0013 11.5815 15.0013 11.25C15.0013 10.9185 14.8696 10.6005 14.6352 10.3661C14.4007 10.1317 14.0828 10 13.7513 10H13.75Z" fill="#FFD233"/>
</svg>
