<svg width="32" height="33" viewBox="0 0 32 33" fill="none" xmlns="http://www.w3.org/2000/svg">
<path d="M7.99992 28.875C7.26659 28.875 6.63859 28.6055 6.11592 28.0665C5.59325 27.5275 5.33237 26.8803 5.33325 26.125V13.75C5.33325 13.3146 5.42792 12.9021 5.61725 12.5125C5.80659 12.1229 6.06748 11.8021 6.39992 11.55L14.3999 5.3625C14.6444 5.17917 14.8999 5.04167 15.1666 4.95C15.4333 4.85833 15.711 4.8125 15.9999 4.8125C16.2888 4.8125 16.5666 4.85833 16.8333 4.95C17.0999 5.04167 17.3555 5.17917 17.5999 5.3625L25.5999 11.55C25.9333 11.8021 26.1946 12.1229 26.3839 12.5125C26.5733 12.9021 26.6675 13.3146 26.6666 13.75V26.125C26.6666 26.8813 26.4053 27.5289 25.8826 28.0679C25.3599 28.6069 24.7324 28.8759 23.9999 28.875H18.6666V19.25H13.3333V28.875H7.99992Z" fill="#F24E1E"/>
</svg>
