<svg width="30" height="28" viewBox="0 0 30 28" fill="none" xmlns="http://www.w3.org/2000/svg">
<path d="M13.75 10.5V7.00002H10V4.66669H13.75V1.16669H16.25V4.66669H20V7.00002H16.25V10.5H13.75ZM8.75 25.6667C8.0625 25.6667 7.47375 25.438 6.98375 24.9807C6.49375 24.5234 6.24917 23.9742 6.25 23.3334C6.25 22.6917 6.495 22.1422 6.985 21.6849C7.475 21.2275 8.06333 20.9992 8.75 21C9.4375 21 10.0262 21.2287 10.5163 21.686C11.0063 22.1434 11.2508 22.6925 11.25 23.3334C11.25 23.975 11.005 24.5245 10.515 24.9819C10.025 25.4392 9.43667 25.6675 8.75 25.6667ZM21.25 25.6667C20.5625 25.6667 19.9737 25.438 19.4837 24.9807C18.9937 24.5234 18.7492 23.9742 18.75 23.3334C18.75 22.6917 18.995 22.1422 19.485 21.6849C19.975 21.2275 20.5633 20.9992 21.25 21C21.9375 21 22.5263 21.2287 23.0163 21.686C23.5063 22.1434 23.7508 22.6925 23.75 23.3334C23.75 23.975 23.505 24.5245 23.015 24.9819C22.525 25.4392 21.9367 25.6675 21.25 25.6667ZM8.75 19.8334C7.8125 19.8334 7.09375 19.4491 6.59375 18.6807C6.09375 17.9122 6.08333 17.1492 6.5625 16.3917L8.25 13.5334L3.75 4.66669H1.25V2.33335H5.34375L10.6562 12.8334H19.4375L24.2812 4.66669L26.4688 5.77502L21.625 13.9417C21.3958 14.3306 21.0938 14.632 20.7188 14.8459C20.3438 15.0597 19.9167 15.1667 19.4375 15.1667H10.125L8.75 17.5H23.75V19.8334H8.75Z" fill="#F24E1E"/>
</svg>
