<svg width="30" height="28" viewBox="0 0 30 28" fill="none" xmlns="http://www.w3.org/2000/svg">
<path d="M15.125 21.6417L15 21.7583L14.8625 21.6417C8.925 16.6133 5 13.2883 5 9.91667C5 7.58333 6.875 5.83333 9.375 5.83333C11.3 5.83333 13.175 7 13.8375 8.58667H16.1625C16.825 7 18.7 5.83333 20.625 5.83333C23.125 5.83333 25 7.58333 25 9.91667C25 13.2883 21.075 16.6133 15.125 21.6417ZM20.625 3.5C18.45 3.5 16.3625 4.445 15 5.92667C13.6375 4.445 11.55 3.5 9.375 3.5C5.525 3.5 2.5 6.31167 2.5 9.91667C2.5 14.315 6.75 17.92 13.1875 23.3683L15 24.9083L16.8125 23.3683C23.25 17.92 27.5 14.315 27.5 9.91667C27.5 6.31167 24.475 3.5 20.625 3.5Z" fill="#F24E1E"/>
</svg>
