<svg width="39" height="45" viewBox="0 0 39 45" fill="none" xmlns="http://www.w3.org/2000/svg">
<g clip-path="url(#clip0_25_115)">
<path opacity="0.5" d="M13.3392 10.1848C12.9127 10.8598 13.2783 12.9832 12.7573 16.098C12.2362 19.2129 10.8103 21.8039 11.0084 25.5164C11.4075 33.0223 17.7602 34.4039 17.7602 34.4039V37.5891C17.7602 37.5891 13.5251 38.1551 13.4946 40.2434C13.4641 42.3316 16.5628 43.1473 19.3873 43.0769C22.2117 43.0066 25.0331 42.0855 25.0636 40.2082C25.0971 38.1516 20.737 37.4836 20.737 37.4836C20.737 37.4836 20.7066 36.7031 20.7066 36.0316C20.7066 35.3601 20.7675 34.4039 20.7675 34.4039C20.7675 34.4039 27.1903 33.3211 27.4554 25.6219C27.5773 22.0816 26.258 18.682 26.0752 15.6726C25.8923 12.6633 26.1056 11.2816 26.1056 10.3957C26.1056 9.50976 25.4566 11.6543 19.3019 11.7492C13.7292 11.8371 13.8328 9.40429 13.3392 10.1848Z" fill="white"/>
<path opacity="0.7" d="M13.3392 10.1848C12.9127 10.8598 13.2783 12.9832 12.7573 16.098C12.2362 19.2129 10.8103 21.8039 11.0084 25.5164C11.4075 33.0223 17.7602 34.4039 17.7602 34.4039V37.5891C17.7602 37.5891 13.5251 38.1551 13.4946 40.2433C13.4641 42.3316 16.5628 43.1473 19.3873 43.0769C22.2117 43.0066 25.0331 42.0855 25.0636 40.2082C25.0971 38.1516 20.737 37.4836 20.737 37.4836C20.737 37.4836 20.7066 36.7031 20.7066 36.0316C20.7066 35.3601 20.7675 34.4039 20.7675 34.4039C20.7675 34.4039 27.1903 33.3211 27.4554 25.6219C27.5773 22.0816 26.258 18.682 26.0752 15.6726C25.8923 12.6633 26.1056 11.2816 26.1056 10.3957C26.1056 9.50976 22.3305 9.01405 19.3537 8.94374C16.377 8.87343 13.8328 9.40429 13.3392 10.1848Z" fill="#E0E0E0"/>
<path d="M14.1101 10.3535C14.8657 10.1812 16.5629 9.87187 19.0979 9.87187C22.6261 9.87187 25.35 10.5082 25.35 10.5082L25.7553 9.61874C25.7553 9.61874 24.2989 8.61679 19.2045 8.71874C17.6232 8.75038 16.4349 8.8453 15.5604 8.95429C13.9517 9.15468 13.8146 10.4238 14.1101 10.3535Z" fill="#C9C9C9"/>
<path d="M13.7505 15.0504C13.6713 14.9133 13.586 14.5231 13.9211 14.2734C14.2563 14.0238 14.9875 13.4086 19.0886 13.4297C23.1928 13.4508 25.2037 14.0906 25.2037 14.6356C25.2037 14.966 24.7893 15.4793 24.7893 15.4793L19.7193 16.7555L13.7505 15.0504Z" fill="#FFEBC9"/>
<path d="M19.6402 15.6375C22.0472 15.6059 25.2038 14.6356 25.2038 14.6356C25.2038 14.6356 25.5237 17.0859 25.6974 18.3902C25.8527 19.5785 27.3579 23.9731 26.3616 27.8508C25.7949 30.0516 23.9393 33.1875 19.5457 33.1875C13.7932 33.1875 11.7031 28.6172 11.6634 25.2563C11.6269 22.2012 12.7786 19.3676 13.1381 18.0422C13.4702 16.8188 13.6805 14.6356 13.6805 14.6356C13.6805 14.6356 15.3106 15.6938 19.6402 15.6375Z" fill="url(#paint0_radial_25_115)"/>
<path d="M13.717 19.1355C13.4428 19.6629 13.1564 20.693 12.9157 21.8672C12.7512 22.6652 12.5775 23.6812 12.611 25.0805C12.6384 26.223 12.8852 28.6312 14.8322 28.4449C15.4873 28.3816 14.759 26.9543 14.9784 23.2101C15.1795 19.7508 16.0357 18.9527 14.7103 18.7594C14.0583 18.6715 13.8785 18.8262 13.717 19.1355ZM18.5463 34.6711C18.5463 34.6711 18.6316 38.584 18.6621 38.7387C18.7565 39.2097 18.9942 39.7301 20.0728 39.6422C21.1514 39.5543 20.6121 38.3695 20.5725 38.2816C20.5329 38.1937 20.4049 35.3355 20.4049 35.3355L20.2891 34.2984L18.5463 34.6711Z" fill="white"/>
<path d="M17.7785 37.923C17.6048 37.8809 16.8796 39.2695 16.8796 39.4172C16.8796 39.5648 17.7175 40.507 19.4116 40.507C21.1057 40.507 21.8064 39.5684 21.8034 39.3891C21.8003 39.1148 20.9198 37.6594 20.9198 37.6594L20.9594 34.6394C20.9594 34.6394 20.7675 34.1684 20.5054 34.3406C20.2434 34.5129 20.2434 34.7344 20.2434 34.9699C20.2434 35.2055 20.219 36.9633 20.2342 37.4836C20.2495 38.0039 20.5725 39.1008 19.4268 39.1676C18.0953 39.2484 17.9521 37.9652 17.7785 37.923Z" fill="#9F9F9F"/>
<path d="M18.2691 34.1367C18.2813 34.4355 18.6286 35.0895 19.4086 35.107C20.1917 35.1246 20.6761 34.6676 20.6761 34.6676C20.6761 34.6676 23.6499 34.4391 25.801 31.5949C27.7906 28.9652 28.1471 24.7852 27.1995 20.9707C26.194 16.9242 26.1849 16.0664 26.1544 13.9043C26.1422 13.0711 26.1818 11.2254 26.1696 11.0109C26.1483 10.575 25.7796 10.4484 25.7644 11.584C25.7461 12.825 25.6913 13.5633 25.7492 15.1699C25.801 16.5937 26.2611 19.0582 26.6937 21.0937C27.3853 24.3562 27.3823 28.7789 25.3439 31.1098C23.2477 33.5074 21.3099 33.8625 20.2008 33.9293C18.8267 34.0172 18.2508 33.7605 18.2691 34.1367Z" fill="#9F9F9F"/>
<path d="M20.8102 14.5652C20.8102 14.5652 22.1264 11.7879 22.5804 10.7227C23.5737 8.41289 24.0612 7.16133 24.3354 6.82734C24.6096 6.48984 30.158 5.50195 30.3225 5.48086C30.4871 5.45977 30.3225 6.3 30.3225 6.3C30.3591 6.46875 30.2037 7.34062 30.2037 7.34062L25.0179 8.34258C25.0179 8.34258 24.311 9.98086 23.9515 10.8105C23.1685 12.6211 22.3123 14.4457 22.3123 14.4457L20.8102 14.5652Z" fill="#FF2A23"/>
<path d="M29.8442 6.32813C29.8107 6.76055 29.8655 7.33008 30.1611 7.35118C30.5054 7.37579 30.5815 6.73243 30.615 6.36329C30.6455 6.03282 30.5846 5.48087 30.3286 5.48087C30.0727 5.48087 29.8838 5.79727 29.8442 6.32813ZM25.6517 8.41993C25.6104 8.41252 25.5721 8.39013 25.5426 8.356C25.513 8.32187 25.4936 8.27778 25.4872 8.23008L25.2343 6.45469C25.228 6.39573 25.2418 6.33625 25.2727 6.28873C25.3036 6.24122 25.3492 6.20935 25.4 6.1998C25.4509 6.19025 25.5029 6.20378 25.5453 6.23753C25.5876 6.27128 25.617 6.32265 25.6273 6.38087L25.8802 8.15626C25.8852 8.1922 25.8828 8.22901 25.8731 8.26365C25.8634 8.2983 25.8467 8.32979 25.8244 8.35553C25.8021 8.38128 25.7748 8.40054 25.7448 8.41174C25.7147 8.42293 25.6828 8.42574 25.6517 8.41993Z" fill="#DB0D25"/>
<path d="M25.3347 8.53594C25.2586 8.53594 25.1854 8.48672 25.155 8.39883L24.5212 6.74297C24.4786 6.62695 24.5212 6.49336 24.6218 6.44063C24.7223 6.38789 24.8381 6.44063 24.8838 6.55664L25.5175 8.2125C25.5602 8.32852 25.5175 8.46211 25.417 8.51484C25.3896 8.53242 25.3622 8.53594 25.3347 8.53594Z" fill="#DB0D25"/>
<path d="M24.9599 8.65548C24.9317 8.65584 24.9037 8.64911 24.8779 8.63576C24.8521 8.6224 24.8292 8.60274 24.8107 8.57814L23.8753 7.3547C23.858 7.33212 23.8447 7.30582 23.8363 7.27731C23.8279 7.24881 23.8244 7.21866 23.8261 7.1886C23.8278 7.15854 23.8346 7.12916 23.8462 7.10216C23.8578 7.07516 23.8739 7.05107 23.8935 7.03126C23.9131 7.01133 23.9359 6.99605 23.9606 6.98632C23.9853 6.97659 24.0114 6.97258 24.0375 6.97454C24.0636 6.9765 24.089 6.98439 24.1124 6.99774C24.1358 7.0111 24.1567 7.02966 24.1739 7.05236L25.1092 8.2758C25.1345 8.30883 25.1509 8.34959 25.1566 8.39316C25.1622 8.43674 25.1569 8.48126 25.1411 8.52138C25.1253 8.5615 25.0998 8.59551 25.0677 8.6193C25.0355 8.64309 24.9981 8.65566 24.9599 8.65548Z" fill="#DB0D25"/>
<path d="M17.2423 14.5476L8.10779 1.11093C8.10779 1.11093 8.18396 0.780463 8.34544 0.639838C8.50693 0.495697 8.75373 0.495697 8.75373 0.495697L18.2539 14.5758L17.2423 14.5476Z" fill="#F8C976"/>
<path d="M13.6897 9.82265L14.5093 10.7684L17.0473 11.7598L22.294 11.8477L25.35 10.5117L25.7492 9.61874C25.7492 9.61874 26.3159 9.86835 26.2915 10.5891C26.2702 11.1621 26.0935 11.8055 24.7955 12.3328C23.4976 12.8602 22.0107 13.1695 19.5092 13.1906C17.0077 13.2117 13.842 12.7723 13.2143 11.3625C12.803 10.4449 13.6897 9.82265 13.6897 9.82265Z" fill="#C9C9C9"/>
<path d="M13.4642 10.4098C13.3941 10.7473 14.2411 11.6297 16.6177 12.0937C19.2441 12.607 22.3093 12.1043 23.4518 11.8687C25.1611 11.5172 25.7157 10.923 25.6334 10.5539C25.5268 10.0828 25.1611 10.3922 24.8839 10.5223C24.6066 10.6488 21.968 11.4504 19.2319 11.3555C16.4958 11.2605 15.4965 10.9547 14.9815 10.6664C14.4666 10.3781 13.6104 9.70663 13.4642 10.4098Z" fill="#F9FBFA"/>
<path d="M17.9187 34.1789C17.9461 33.8203 17.2209 33.7184 16.1302 33.1523C15.0394 32.5863 12.4221 31.1695 11.5781 27.6152C10.7616 24.184 11.5537 21.8883 12.6415 18.2742C13.1046 16.7344 13.4306 14.4035 13.458 13.1766C13.4855 11.9496 13.5403 11.4961 13.2143 11.3625C12.8883 11.2289 12.9675 11.7316 12.9675 13.0816C12.9675 14.4316 12.5897 16.4461 12.1509 17.8945C11.0602 21.4805 9.95414 24.2191 11.0541 28.1742C11.7427 30.6492 12.9492 32.2348 15.6944 33.75C16.9467 34.4426 17.8791 34.6957 17.9187 34.1789Z" fill="#D5D5D5"/>
<path d="M14.4269 39.6562C14.0461 39.7336 13.9546 40.3594 14.8809 41.0238C15.8071 41.6883 17.9704 41.9695 18.074 41.5863C18.1776 41.2031 16.7669 41.0238 15.667 40.398C14.9357 39.9867 14.8261 39.5754 14.4269 39.6562ZM20.8375 41.748C20.9807 42.0293 23.4883 41.8289 24.119 40.9219C24.7467 40.0148 24.2775 39.2519 23.5432 39.3117C22.9643 39.3609 23.7686 39.8355 23.0709 40.4402C22.3732 41.0414 20.5907 41.2629 20.8375 41.748Z" fill="white"/>
<path d="M13.6317 39.6738C13.4397 39.6914 13.0223 40.5984 13.3879 41.4457C13.6073 41.9555 14.04 42.3 14.6433 42.6551C15.536 43.1789 16.9497 43.6324 19.2014 43.6113C20.8802 43.5973 22.0441 43.3617 22.8942 43.077C24.5852 42.5145 24.9904 41.4317 25.0758 41.1223C25.1946 40.6899 25.158 40.0324 25.0605 40.0149C24.9539 39.9973 24.8168 40.6055 24.6035 40.9219C24.1952 41.5231 23.5615 41.959 22.6779 42.1981C21.7851 42.4406 20.9259 42.6621 19.1069 42.6129C15.3562 42.5109 14.3447 41.4246 13.9608 40.8199C13.5312 40.1449 13.8572 39.6527 13.6317 39.6738Z" fill="#9F9F9F"/>
<path d="M11.0998 4.62656C10.3198 5.32617 9.25951 6.90821 9.5581 9.73477C9.77443 11.7949 10.9597 13.384 11.048 13.3629C11.1364 13.3418 18.2874 6.34922 18.2691 6.2086C18.2508 6.06797 17.4343 4.22227 15.3929 3.57891C13.3515 2.93555 11.7275 4.06055 11.0998 4.62656Z" fill="#FF8E00"/>
<path d="M14.8231 8.40234L17.224 6.11367C17.224 6.11367 16.3679 4.86562 15.0608 4.5246L14.8231 8.40234ZM10.396 9.26367C10.5179 10.7824 11.1516 11.9707 11.1516 11.9707L13.6744 9.52031L10.396 9.26367ZM14.1589 8.19843L14.4605 4.42968C13.7171 4.29609 12.8122 4.42265 12.0078 5.09765L14.1589 8.19843ZM11.5081 5.72343C10.8439 6.5039 10.5118 7.33359 10.4356 8.36015L13.6714 8.8207L11.5081 5.72343Z" fill="#FFA500"/>
<path d="M9.19248 2.7246C9.19248 2.7246 9.50935 3.14296 9.83841 2.77733C10.1126 2.47499 9.86584 2.14452 9.86584 2.14452C9.86584 2.14452 10.9048 1.74725 11.5325 2.57342C12.1601 3.3996 12.1419 4.60546 11.374 5.23124C10.6336 5.83592 9.61904 5.78319 9.0706 4.7285C8.5313 3.67382 9.19248 2.7246 9.19248 2.7246Z" fill="#DC0D27"/>
</g>
<defs>
<radialGradient id="paint0_radial_25_115" cx="0" cy="0" r="1" gradientUnits="userSpaceOnUse" gradientTransform="translate(19.383 16.5439) rotate(89.3892) scale(14.0854 20.3843)">
<stop offset="0.262" stop-color="#FFD3A6"/>
<stop offset="0.304" stop-color="#FFCF97"/>
<stop offset="0.384" stop-color="#FFC471"/>
<stop offset="0.494" stop-color="#FFB334"/>
<stop offset="0.578" stop-color="#FFA500"/>
<stop offset="0.667" stop-color="#FF8702"/>
<stop offset="0.817" stop-color="#FF5B05"/>
<stop offset="0.932" stop-color="#FF3F06"/>
<stop offset="1" stop-color="#FF3507"/>
</radialGradient>
<clipPath id="clip0_25_115">
<rect width="39" height="45" fill="white"/>
</clipPath>
</defs>
</svg>
