<svg width="39" height="48" viewBox="0 0 39 48" fill="none" xmlns="http://www.w3.org/2000/svg">
<path opacity="0.15" d="M30.4688 42.5C30.4688 42.8978 29.3131 43.2794 27.2561 43.5607C25.199 43.842 22.4091 44 19.5 44C16.5909 44 13.801 43.842 11.7439 43.5607C9.68688 43.2794 8.53125 42.8978 8.53125 42.5C8.53125 42.1022 9.68688 41.7206 11.7439 41.4393C13.801 41.158 16.5909 41 19.5 41C22.4091 41 25.199 41.158 27.2561 41.4393C29.3131 41.7206 30.4688 42.1022 30.4688 42.5Z" fill="#45413C"/>
<path d="M6.32932 26.6L6.10182 28C6.10182 28 15.0393 31.86 19.305 33C24.18 34.27 31.9475 35.13 34.515 35.57C35.1492 35.6749 35.7944 35.5398 36.3648 35.1826C36.9352 34.8253 37.4037 34.2629 37.7081 33.57L38.1062 32.7L6.5487 25.12L6.32932 26.6Z" fill="#DEBB7E" stroke="#45413C" stroke-linecap="round" stroke-linejoin="round"/>
<path d="M6.32937 26.6L6.70312 24.17C7.27187 20.45 14.0156 16.04 22.1406 17.06C22.1406 17.06 23.6844 13.64 21.3281 12.46C18.9719 11.28 1.89312 7.29001 1.25937 23.29C1.24185 23.8761 1.39646 24.4504 1.69489 24.9077C1.99331 25.365 2.41558 25.6746 2.88437 25.78L6.32937 26.6Z" fill="#F0D5A8"/>
<path d="M21.2793 12.46C22.8312 13.23 22.7093 14.95 22.4412 16.05C22.1934 15.674 21.8678 15.3873 21.4987 15.22C19.1993 14.07 3.05495 10.28 1.52745 24.69C1.30378 24.2766 1.1928 23.7862 1.21058 23.29C1.84433 7.29001 18.9068 11.28 21.2793 12.46Z" fill="#F7E5C6"/>
<path d="M6.3294 26.6L2.84378 25.78C2.37498 25.6746 1.95271 25.3649 1.65429 24.9077C1.35586 24.4504 1.20126 23.8761 1.21878 23.29C1.26253 21.9289 1.46221 20.5823 1.8119 19.29C2.48717 19.0114 3.21009 18.9563 3.90815 19.13C5.81753 19.57 7.15815 21.43 6.8494 23.27L6.3294 26.6Z" fill="#DEBB7E"/>
<path d="M6.3294 26.6L2.84378 25.78C2.37498 25.6746 1.95271 25.3649 1.65429 24.9077C1.35586 24.4504 1.20126 23.8761 1.21878 23.29C1.26253 21.9289 1.46221 20.5823 1.8119 19.29C2.48718 19.0114 3.21009 18.9563 3.90815 19.13C5.81753 19.57 7.15815 21.43 6.8494 23.27L6.3294 26.6Z" stroke="#45413C" stroke-linecap="round" stroke-linejoin="round"/>
<path d="M6.32937 26.6L6.70312 24.17C7.27187 20.45 14.0156 16.04 22.1406 17.06C22.1406 17.06 23.6844 13.64 21.3281 12.46C18.9719 11.28 1.89312 7.29001 1.25937 23.29C1.24185 23.8761 1.39646 24.4504 1.69489 24.9077C1.99331 25.365 2.41558 25.6746 2.88437 25.78L6.32937 26.6Z" stroke="#45413C" stroke-linecap="round" stroke-linejoin="round"/>
<path d="M22.1081 17.06L37.765 31.06C37.9241 31.1956 38.0484 31.3844 38.1232 31.6041C38.1981 31.8238 38.2204 32.0652 38.1875 32.3L38.1225 32.74L37.7487 35.17C37.7253 35.3312 37.6761 35.4851 37.6041 35.6228C37.532 35.7605 37.4385 35.8792 37.329 35.9722C37.2195 36.0652 37.0961 36.1305 36.9659 36.1645C36.8357 36.1984 36.7014 36.2003 36.5706 36.17C36.4395 36.1436 36.314 36.085 36.2016 35.9977C36.0892 35.9104 35.9923 35.7962 35.9165 35.6619C35.8407 35.5275 35.7876 35.3758 35.7604 35.2157C35.7332 35.0556 35.7324 34.8905 35.7581 34.73L35.945 33.51L32.9794 32.82L32.7031 34.65C32.611 35.1123 32.3783 35.5136 32.0531 35.7712C31.7278 36.0288 31.3347 36.123 30.9546 36.0346C30.5746 35.9462 30.2366 35.6818 30.0101 35.2958C29.7837 34.9099 29.6861 34.4318 29.7375 33.96L30.0219 32.13L16.2094 28.91L16.0225 30.13C15.999 30.2912 15.9499 30.4451 15.8778 30.5828C15.8058 30.7205 15.7123 30.8392 15.6028 30.9322C15.4932 31.0252 15.3698 31.0905 15.2396 31.1245C15.1095 31.1584 14.9751 31.1603 14.8444 31.13C14.7132 31.1036 14.5877 31.045 14.4754 30.9577C14.363 30.8704 14.266 30.7562 14.1902 30.6219C14.1144 30.4875 14.0613 30.3358 14.0341 30.1757C14.0069 30.0156 14.0062 29.8505 14.0319 29.69L14.2187 28.47L9.27874 27.32L9.0025 29.15C8.91037 29.6123 8.67773 30.0136 8.35246 30.2712C8.0272 30.5288 7.63407 30.623 7.25402 30.5346C6.87397 30.4462 6.53594 30.1818 6.30951 29.7958C6.08309 29.4099 5.98551 28.9318 6.03687 28.46L6.695 24.21C7.27187 20.45 13.9994 16 22.1081 17.06Z" fill="#FFE500"/>
<path d="M9.28687 27.28L9.01062 29.11C8.9185 29.5723 8.68585 29.9736 8.36059 30.2312C8.03532 30.4887 7.64219 30.583 7.26215 30.4946C6.8821 30.4062 6.54407 30.1418 6.31764 29.7558C6.09122 29.3699 5.99364 28.8918 6.04499 28.42L6.70312 24.17C7.27187 20.45 14.0156 16.04 22.1406 17.06L23.0262 17.85C16.3475 18.1 11.18 21.85 10.6844 25.08L10.3106 27.51L9.28687 27.28Z" fill="#EBCB00"/>
<path d="M33.8487 31C33.9431 30.9977 34.034 30.9558 34.1064 30.8812C34.1788 30.8067 34.2284 30.7039 34.2469 30.59C34.2659 30.4601 34.2424 30.3262 34.1815 30.2176C34.1206 30.1089 34.0273 30.0343 33.9219 30.01L9.24625 24.26C9.1385 24.2348 9.02704 24.2633 8.93638 24.3393C8.84571 24.4152 8.78328 24.5324 8.76281 24.665C8.74234 24.7976 8.76551 24.9348 8.82722 25.0464C8.88893 25.1579 8.98413 25.2348 9.09187 25.26L33.7756 31H33.8487Z" fill="#EBCB00"/>
<path d="M14.2269 28.43L14.4137 27.22M9.28687 27.28L9.66062 24.85M32.9794 32.8L33.1662 31.59M22.1081 17.06L37.765 31.06C37.9241 31.1956 38.0484 31.3844 38.1232 31.6041C38.1981 31.8238 38.2204 32.0652 38.1875 32.3L37.7487 35.17C37.7253 35.3312 37.6761 35.4851 37.6041 35.6228C37.532 35.7605 37.4385 35.8792 37.329 35.9722C37.2195 36.0652 37.0961 36.1305 36.9659 36.1645C36.8357 36.1984 36.7014 36.2003 36.5706 36.17C36.4395 36.1436 36.314 36.085 36.2016 35.9977C36.0892 35.9104 35.9923 35.7962 35.9165 35.6619C35.8407 35.5275 35.7876 35.3758 35.7604 35.2157C35.7332 35.0556 35.7324 34.8905 35.7581 34.73L35.945 33.51L32.9794 32.82L32.7031 34.65C32.611 35.1123 32.3783 35.5136 32.0531 35.7712C31.7278 36.0288 31.3347 36.123 30.9546 36.0346C30.5746 35.9462 30.2366 35.6818 30.0101 35.2958C29.7837 34.9099 29.6861 34.4318 29.7375 33.96L30.0219 32.13L16.2094 28.91L16.0225 30.13C15.999 30.2912 15.9499 30.4451 15.8778 30.5828C15.8058 30.7205 15.7123 30.8392 15.6028 30.9322C15.4932 31.0252 15.3698 31.0905 15.2396 31.1245C15.1095 31.1584 14.9751 31.1603 14.8444 31.13C14.7132 31.1036 14.5877 31.045 14.4754 30.9577C14.363 30.8704 14.266 30.7562 14.1902 30.6219C14.1144 30.4875 14.0613 30.3358 14.0341 30.1757C14.0069 30.0156 14.0062 29.8505 14.0319 29.69L14.2187 28.47L9.27874 27.32L9.0025 29.15C8.91037 29.6123 8.67773 30.0136 8.35246 30.2712C8.0272 30.5288 7.63407 30.623 7.25402 30.5346C6.87397 30.4462 6.53594 30.1818 6.30951 29.7958C6.08309 29.4099 5.98551 28.9318 6.03687 28.46L6.695 24.21C7.27187 20.45 13.9994 16 22.1081 17.06Z" stroke="#45413C" stroke-linecap="round" stroke-linejoin="round"/>
<path d="M24.2288 23.21C22.3194 22.77 20.9381 21.32 21.1494 19.98C21.2956 18.98 22.23 18.38 23.4488 18.25L27.8363 22.18C27.2838 23.13 25.8294 23.59 24.2288 23.21ZM11.1313 25.2C11.0115 25.0145 10.9238 24.8009 10.8735 24.5722C10.8232 24.3435 10.8114 24.1045 10.8388 23.87C11.0419 22.53 12.7563 21.8 14.6656 22.24C16.575 22.68 17.9156 24.14 17.745 25.48C17.6995 25.7089 17.617 25.9242 17.5026 26.1132C17.3881 26.3021 17.244 26.4609 17.0788 26.58L11.1313 25.2ZM30.875 29.79C30.7577 29.605 30.6721 29.3926 30.6232 29.1658C30.5743 28.9389 30.5633 28.7023 30.5906 28.47C30.7369 27.47 31.6956 26.84 32.9388 26.74L37.2856 30.63C37.1602 30.8505 36.9999 31.0376 36.8144 31.18L30.875 29.79ZM19.6138 27.17C20.1906 25.87 21.9456 25.17 23.855 25.64C25.7644 26.11 27.1944 27.5 27.3488 29L19.6138 27.17Z" fill="#FF6242" stroke="#45413C" stroke-linecap="round" stroke-linejoin="round"/>
</svg>
